<?xml version="1.0" encoding="utf-8"?>
<!-- Generator: Adobe Illustrator 23.0.3, SVG Export Plug-In . SVG Version: 6.00 Build 0)  -->
<svg version="1.1" id="Layer_1" xmlns="http://www.w3.org/2000/svg" xmlns:xlink="http://www.w3.org/1999/xlink" x="0px" y="0px"
	 viewBox="0 0 183.33 183.47" style="enable-background:new 0 0 183.33 183.47;" xml:space="preserve">
<style type="text/css">
	.st0{fill:#47BC93;}
</style>
<g>
	<path class="st0" d="M183.15,92.46l-25.67-25.78l-32.61,32.37l-7.39-7.39l40.42-40.42l25.45-25.45l-12.9-12.9L157.53,0L91.67,65.86
		L25.8,0L0,25.8l65.86,65.86l-7.39,7.39L26.6,67.26L0.93,93.04l31.78,31.77L0,157.53l12.9,12.9l12.9,12.9l32.72-32.72l32.87,32.86
		l0.12-0.12l25.69-25.69l7.54-7.12l32.79,32.79l12.9-12.9l12.9-12.9l-32.72-32.72L183.15,92.46z M91.57,132.09l-7.27-7.26l7.37-7.37
		l7.29,7.29L91.57,132.09z"/>
</g>
</svg>
